# xmcd
#
# Track frame offsets:
#	150
#	15062
#	29987
#	47960
#	62550
#	84805
#	102592
#	119220
#	136420
#	150032
#	169635
#	188992
#	207312
#	227292
#	245652
#
# Disc length: 3534 seconds
#
# Revision: 1
# Processed by: cddbd v1.5.1PL0 Copyright (c) Steve Scherf et al.
# Submitted via: CDex 1.50Beta5
#
DISCID=c10dcc0f
DTITLE=山本達彦 - TWIN BEST 山本達彦 Disc 1
DYEAR=1998
DGENRE=
TTITLE0=LAST GOOD-BYE
TTITLE1=摩天楼ブルース
TTITLE2=夏の愛人
TTITLE3=MY MARINE MARILYN
TTITLE4=パシフィック・ブルー
TTITLE5=MAN+WOMAM=100%
TTITLE6=I LOVE YOU SO
TTITLE7=嘘の台詞
TTITLE8=MRS.SNOW
TTITLE9=IN SUMMER DAY
TTITLE10=FAREWELL,MIDNIGHT BLUE
TTITLE11=LADY
TTITLE12=LONELY JOURNEY
TTITLE13=FAIRY PRINCESS
TTITLE14=MISSING LOVE
EXTD=
EXTT0=
EXTT1=
EXTT2=
EXTT3=
EXTT4=
EXTT5=
EXTT6=
EXTT7=
EXTT8=
EXTT9=
EXTT10=
EXTT11=
EXTT12=
EXTT13=
EXTT14=
PLAYORDER=
